<?xml version="1.0" encoding="UTF-8" standalone="no" ?>
<svg width="256px" height="290.3px" viewBox="0 0 256 290.3" version="1.1" preserveAspectRatio="xMidYMid" xmlns="http://www.w3.org/2000/svg">
  <defs></defs>
  <g>
    <path d="M 255.555 0 L 232.314 260.36 L 127.844 289.322 L 23.662 260.401 L 0.445 0 L 255.555 0 Z" fill="#E44D26"></path>
    <path d="M 128 267.185 L 212.417 243.781 L 232.278 21.292 L 128 21.292 L 128 267.185 Z" fill="#F16529"></path>
    <path d="M 82.82 85.166 L 128 85.166 L 128 53.229 L 47.917 53.229 L 48.681 61.797 L 56.531 149.807 L 128 149.807 L 128 117.87 L 85.739 117.87 L 82.82 85.166 Z" fill="#EBEBEB"></path>
    <path d="M 90.018 165.776 L 57.958 165.776 L 62.432 215.922 L 127.853 234.083 L 128 234.042 L 128 200.814 L 127.86 200.852 L 92.292 191.247 L 90.018 165.776 Z" fill="#EBEBEB"></path>
    <path d="M 127.89 149.807 L 167.217 149.807 L 163.509 191.227 L 127.89 200.841 L 127.89 234.068 L 193.362 215.922 L 193.843 210.526 L 201.348 126.446 L 202.127 117.87 L 127.89 117.87 L 127.89 149.807 Z" fill="#FFFFFF"></path>
    <path d="M 127.89 85.088 L 127.89 85.166 L 205.033 85.166 L 205.673 77.988 L 207.129 61.797 L 207.892 53.229 L 127.89 53.229 L 127.89 85.088 Z" fill="#FFFFFF"></path>
  </g>
</svg>
